ply
format ascii 1.0
comment generated by ply_writer
element vertex 10
property float x
property float y
property float z
element face 14
property list uchar int vertex_indices
end_header
0.0317083 0.0557939 -0.049836 
0.0320029 0.0582284 -0.0496201 
0.0346746 0.0595663 -0.0496514 
0.0311847 0.0554275 -0.0483665 
0.0347712 0.0563475 -0.0469784 
0.0338793 0.0567186 -0.0496572 
0.0314419 0.0588264 -0.046953 
0.0347062 0.0589775 -0.0486368 
0.0375846 0.0600348 -0.0494418 
0.0348944 0.0632515 -0.0475474 
3 5 0 2 
3 0 1 2 
3 0 3 1 
3 4 0 5 
3 1 3 6 
3 4 5 2 
3 8 7 2 
3 3 0 4 
3 2 7 4 
3 6 7 1 
3 1 7 2 
3 7 9 2 
3 9 7 6 
3 4 6 3  